<svg width="167" height="25" viewBox="0 0 167 25" fill="none" xmlns="http://www.w3.org/2000/svg">
<path fill-rule="evenodd" clip-rule="evenodd" d="M10.335 2.375C10.335 2.03239 10.6174 1.75 10.96 1.75H12.085C12.4276 1.75 12.71 2.03239 12.71 2.375V2.99893C12.71 3.00345 12.71 3.00797 12.71 3.01247V3.5C12.71 3.84261 12.4276 4.125 12.085 4.125H10.96C10.6174 4.125 10.335 3.84261 10.335 3.5V3.01128V3.0001V2.375ZM13.7075 3.59037C13.6604 4.44353 12.9496 5.125 12.085 5.125H10.96C10.0943 5.125 9.38274 4.44166 9.33732 3.58687C5.72978 4.26802 2.96168 7.32167 2.73392 11.0662H2.80377C3.6987 11.0662 4.42877 11.7964 4.42877 12.6912V13.8162C4.42877 14.7111 3.69866 15.4412 2.80377 15.4412H1.67877C0.78388 15.4412 0.053772 14.7111 0.053772 13.8162V12.6912C0.053772 11.7964 0.78384 11.0662 1.67877 11.0662H1.73223C1.96468 6.76673 5.17622 3.26931 9.33502 2.57156V2.375C9.33502 1.48011 10.0651 0.75 10.96 0.75H12.085C12.9799 0.75 13.71 1.48011 13.71 2.375V2.57404C17.8463 3.29152 21.0363 6.77838 21.2678 11.0662H21.3213C22.2162 11.0662 22.9463 11.7964 22.9463 12.6912V13.8162C22.9463 14.7111 22.2162 15.4412 21.3213 15.4412H20.1963C19.3014 15.4412 18.5713 14.7111 18.5713 13.8162V12.6912C18.5713 11.7964 19.3013 11.0662 20.1963 11.0662H20.2661C20.0395 7.33364 17.2928 4.29029 13.7075 3.59037ZM20.7692 12.0662H20.1963C19.8537 12.0662 19.5713 12.3486 19.5713 12.6912V13.8162C19.5713 14.1588 19.8537 14.4412 20.1963 14.4412H21.3213C21.6639 14.4412 21.9463 14.1588 21.9463 13.8162V12.6912C21.9463 12.3486 21.6638 12.0662 21.3213 12.0662H20.7934C20.7894 12.0663 20.7853 12.0663 20.7813 12.0663C20.7772 12.0663 20.7732 12.0663 20.7692 12.0662ZM2.21875 12.0663L2.20679 12.0662H1.67877C1.3362 12.0662 1.05377 12.3486 1.05377 12.6912V13.8162C1.05377 14.1588 1.33616 14.4412 1.67877 14.4412H2.80377C3.14638 14.4412 3.42877 14.1588 3.42877 13.8162V12.6912C3.42877 12.3486 3.14634 12.0662 2.80377 12.0662H2.23071L2.21875 12.0663ZM133.299 24.074C132.291 24.074 131.355 23.804 130.491 23.264C129.627 22.706 128.934 21.941 128.412 20.969C127.89 19.979 127.629 18.863 127.629 17.621C127.629 16.505 127.899 15.452 128.439 14.462C128.979 13.472 129.726 12.68 130.68 12.086C131.634 11.492 132.696 11.195 133.866 11.195C134.424 11.195 134.982 11.267 135.54 11.411C136.098 11.537 136.584 11.717 136.998 11.951H137.079V7.81999C137.079 7.35199 137.061 7.00999 137.025 6.79399C137.007 6.57799 136.899 6.38899 136.701 6.22699C136.503 6.06499 136.17 5.98399 135.702 5.98399C135.486 5.98399 135.324 5.95699 135.216 5.903C135.108 5.83099 135.054 5.67799 135.054 5.44399C135.054 5.33599 135.09 5.23699 135.162 5.147C135.234 5.03899 135.342 4.97599 135.486 4.95799C136.62 4.79599 137.592 4.56199 138.402 4.25599C138.654 4.16599 138.861 4.11199 139.023 4.09399H139.104C139.392 4.09399 139.536 4.26499 139.536 4.60699V21.266C139.536 22.328 140.238 22.859 141.642 22.859C141.948 22.859 142.101 23.003 142.101 23.291C142.101 23.543 141.948 23.696 141.642 23.75L137.349 24.047C137.223 24.047 137.151 24.002 137.133 23.912C137.115 23.84 137.106 23.705 137.106 23.507V22.427H137.025C136.557 22.913 135.981 23.309 135.297 23.615C134.631 23.921 133.965 24.074 133.299 24.074ZM134.217 22.724C134.847 22.724 135.378 22.607 135.81 22.373C136.26 22.121 136.683 21.788 137.079 21.374V14.246C136.917 13.724 136.575 13.247 136.053 12.815C135.549 12.383 134.91 12.167 134.136 12.167C133.434 12.167 132.795 12.392 132.219 12.842C131.661 13.274 131.22 13.913 130.896 14.759C130.572 15.605 130.41 16.604 130.41 17.756C130.41 19.142 130.734 20.321 131.382 21.293C132.048 22.247 132.993 22.724 134.217 22.724ZM103.93 23.831C103.804 23.831 103.696 23.777 103.606 23.669C103.534 23.561 103.498 23.435 103.498 23.291C103.516 23.057 103.57 22.922 103.66 22.886C103.75 22.832 103.912 22.805 104.146 22.805C104.614 22.805 104.947 22.724 105.145 22.562C105.343 22.4 105.451 22.211 105.469 21.995C105.505 21.779 105.523 21.437 105.523 20.969V14.786C105.523 14.318 105.505 13.976 105.469 13.76C105.451 13.544 105.343 13.355 105.145 13.193C104.947 13.031 104.614 12.95 104.146 12.95C103.93 12.95 103.768 12.923 103.66 12.869C103.552 12.797 103.498 12.644 103.498 12.41C103.498 12.302 103.534 12.203 103.606 12.113C103.678 12.005 103.786 11.942 103.93 11.924C105.064 11.762 106.036 11.528 106.846 11.222C107.098 11.132 107.305 11.078 107.467 11.06H107.548C107.836 11.06 107.98 11.231 107.98 11.573V20.969C107.98 21.437 107.998 21.779 108.034 21.995C108.07 22.211 108.187 22.4 108.385 22.562C108.583 22.724 108.916 22.805 109.384 22.805H109.546C109.69 22.805 109.798 22.832 109.87 22.886C109.942 22.94 109.987 23.075 110.005 23.291C110.005 23.435 109.969 23.561 109.897 23.669C109.825 23.777 109.717 23.831 109.573 23.831C108.529 23.777 107.584 23.75 106.738 23.75C105.928 23.75 104.992 23.777 103.93 23.831ZM106.603 8.06299C106.099 8.06299 105.676 7.90999 105.334 7.60399C104.992 7.27999 104.821 6.88399 104.821 6.41599C104.821 6.002 105.028 5.63299 105.442 5.30899C105.856 4.98499 106.324 4.82299 106.846 4.82299C107.296 4.82299 107.665 4.98499 107.953 5.30899C108.241 5.615 108.385 6.01099 108.385 6.49699C108.385 6.92899 108.214 7.29799 107.872 7.60399C107.53 7.90999 107.107 8.06299 106.603 8.06299ZM32.245 23.831C32.083 23.831 31.957 23.777 31.867 23.669C31.795 23.543 31.759 23.399 31.759 23.237C31.777 22.967 31.831 22.805 31.921 22.751C32.029 22.697 32.2 22.67 32.434 22.67C32.956 22.67 33.343 22.58 33.595 22.4C33.847 22.202 34.009 21.968 34.081 21.698C34.153 21.428 34.198 21.059 34.216 20.591V9.87199C34.198 9.40399 34.153 9.035 34.081 8.765C34.009 8.49499 33.847 8.26999 33.595 8.08999C33.343 7.89199 32.956 7.79299 32.434 7.79299H32.272C32.11 7.79299 31.984 7.76599 31.894 7.71199C31.822 7.63999 31.777 7.47799 31.759 7.22599C31.759 7.06399 31.795 6.92899 31.867 6.82099C31.957 6.69499 32.083 6.632 32.245 6.632C33.415 6.68599 34.486 6.71299 35.458 6.71299C36.538 6.71299 37.663 6.68599 38.833 6.632C38.995 6.632 39.112 6.69499 39.184 6.82099C39.274 6.92899 39.319 7.06399 39.319 7.22599C39.301 7.496 39.238 7.65799 39.13 7.71199C39.04 7.76599 38.869 7.79299 38.617 7.79299C38.095 7.79299 37.708 7.89199 37.456 8.08999C37.204 8.26999 37.042 8.50399 36.97 8.792C36.916 9.06199 36.88 9.42199 36.862 9.87199V20.591C36.88 21.041 36.916 21.41 36.97 21.698C37.042 21.968 37.204 22.202 37.456 22.4C37.708 22.58 38.095 22.67 38.617 22.67H38.779C38.959 22.67 39.085 22.706 39.157 22.778C39.247 22.832 39.301 22.985 39.319 23.237C39.319 23.399 39.274 23.543 39.184 23.669C39.112 23.777 38.995 23.831 38.833 23.831C37.681 23.777 36.565 23.75 35.485 23.75C34.495 23.75 33.415 23.777 32.245 23.831ZM45.9237 24.074C44.0877 24.074 42.6477 23.489 41.6037 22.319C40.5597 21.149 40.0377 19.583 40.0377 17.621C40.0737 16.397 40.3707 15.308 40.9287 14.354C41.5047 13.382 42.2697 12.626 43.2237 12.086C44.1777 11.528 45.2307 11.231 46.3827 11.195C47.5347 11.195 48.5247 11.411 49.3527 11.843C50.1987 12.275 50.6217 12.995 50.6217 14.003C50.6217 14.561 50.4507 15.056 50.1087 15.488C49.7847 15.902 49.3437 16.109 48.7857 16.109C48.4437 16.109 48.1467 16.019 47.8947 15.839C47.6607 15.659 47.5437 15.506 47.5437 15.38C47.5437 15.362 47.6247 15.281 47.7867 15.137C47.9487 14.993 48.0927 14.822 48.2187 14.624C48.3627 14.408 48.4347 14.165 48.4347 13.895C48.4347 13.337 48.2277 12.914 47.8137 12.626C47.4177 12.338 46.9317 12.194 46.3557 12.194C44.9697 12.194 44.0247 12.707 43.5207 13.733C43.0347 14.741 42.7917 16.01 42.7917 17.54C42.7917 19.052 43.1337 20.294 43.8177 21.266C44.5017 22.238 45.4107 22.724 46.5447 22.724C47.3187 22.724 47.9757 22.562 48.5157 22.238C49.0737 21.896 49.5777 21.383 50.0277 20.699C50.0817 20.609 50.1717 20.564 50.2977 20.564C50.3877 20.564 50.4867 20.591 50.5947 20.645C50.6847 20.681 50.7567 20.744 50.8107 20.834C50.8647 20.924 50.8917 21.014 50.8917 21.104C50.8917 21.158 50.8647 21.23 50.8107 21.32C50.2167 22.166 49.4787 22.841 48.5967 23.345C47.7147 23.831 46.8237 24.074 45.9237 24.074ZM55.8761 23.21C56.8301 23.786 57.9191 24.074 59.1431 24.074C60.1151 24.074 61.0871 23.813 62.0591 23.291C63.0311 22.751 63.8321 21.986 64.4621 20.996C65.1101 19.988 65.4341 18.809 65.4341 17.459C65.4341 16.379 65.1641 15.362 64.6241 14.408C64.1021 13.436 63.3641 12.662 62.4101 12.086C61.4561 11.492 60.3671 11.195 59.1431 11.195C58.1531 11.195 57.1721 11.465 56.2001 12.005C55.2281 12.527 54.4271 13.292 53.7971 14.3C53.1671 15.29 52.8521 16.46 52.8521 17.81C52.8521 18.89 53.1131 19.916 53.6351 20.888C54.1751 21.842 54.9221 22.616 55.8761 23.21ZM61.8161 21.509C61.2581 22.553 60.3671 23.075 59.1431 23.075C57.9371 23.075 57.0461 22.58 56.4701 21.59C55.8941 20.582 55.6061 19.304 55.6061 17.756C55.6061 16.1 55.8851 14.759 56.4431 13.733C57.0011 12.707 57.9011 12.194 59.1431 12.194C60.3311 12.194 61.2131 12.689 61.7891 13.679C62.3831 14.651 62.6801 15.911 62.6801 17.459C62.6801 19.115 62.3921 20.465 61.8161 21.509ZM67.7019 23.831C67.5759 23.831 67.4679 23.777 67.3779 23.669C67.3059 23.561 67.2699 23.435 67.2699 23.291C67.2879 23.057 67.3419 22.922 67.4319 22.886C67.5219 22.832 67.6839 22.805 67.9179 22.805C68.3859 22.805 68.7189 22.724 68.9169 22.562C69.1149 22.4 69.2229 22.211 69.2409 21.995C69.2769 21.779 69.2949 21.437 69.2949 20.969V14.786C69.2949 14.318 69.2769 13.976 69.2409 13.76C69.2229 13.544 69.1149 13.355 68.9169 13.193C68.7189 13.031 68.3859 12.95 67.9179 12.95C67.7019 12.95 67.5399 12.923 67.4319 12.869C67.3239 12.797 67.2699 12.644 67.2699 12.41C67.2699 12.302 67.3059 12.203 67.3779 12.113C67.4499 12.005 67.5579 11.942 67.7019 11.924C68.8719 11.744 69.8349 11.51 70.5909 11.222C70.8969 11.132 71.1039 11.078 71.2119 11.06H71.2929C71.5809 11.06 71.7249 11.231 71.7249 11.573V13.274H71.8059C72.3279 12.788 72.7509 12.419 73.0749 12.167C73.3989 11.897 73.8129 11.672 74.3169 11.492C74.8389 11.294 75.4509 11.195 76.1529 11.195C77.3769 11.195 78.3489 11.564 79.0689 12.302C79.7889 13.04 80.1489 14.012 80.1489 15.218V20.969C80.1489 21.437 80.1669 21.779 80.2029 21.995C80.2389 22.211 80.3559 22.4 80.5539 22.562C80.7519 22.724 81.0849 22.805 81.5529 22.805H81.7149C81.8589 22.805 81.9669 22.832 82.0389 22.886C82.1109 22.94 82.1559 23.075 82.1739 23.291C82.1739 23.435 82.1289 23.561 82.0389 23.669C81.9669 23.777 81.8679 23.831 81.7419 23.831C80.6979 23.777 79.7529 23.75 78.9069 23.75C78.0969 23.75 77.1609 23.777 76.0989 23.831C75.9729 23.831 75.8649 23.777 75.7749 23.669C75.7029 23.561 75.6669 23.435 75.6669 23.291C75.6849 23.057 75.7299 22.922 75.8019 22.886C75.8919 22.832 76.0539 22.805 76.2879 22.805C76.7559 22.805 77.0889 22.724 77.2869 22.562C77.4849 22.4 77.6019 22.211 77.6379 21.995C77.6739 21.779 77.6919 21.437 77.6919 20.969V15.245C77.6919 14.417 77.4309 13.787 76.9089 13.355C76.3869 12.905 75.7839 12.68 75.0999 12.68C74.2719 12.68 73.5609 12.887 72.9669 13.301C72.3729 13.697 71.9679 14.111 71.7519 14.543V20.969C71.7519 21.437 71.7699 21.779 71.8059 21.995C71.8419 22.211 71.9589 22.4 72.1569 22.562C72.3549 22.724 72.6879 22.805 73.1559 22.805H73.3179C73.4619 22.805 73.5699 22.832 73.6419 22.886C73.7139 22.94 73.7589 23.075 73.7769 23.291C73.7769 23.435 73.7409 23.561 73.6689 23.669C73.5969 23.777 73.4889 23.831 73.3449 23.831C72.3009 23.777 71.3559 23.75 70.5099 23.75C69.6999 23.75 68.7639 23.777 67.7019 23.831ZM89.8227 23.669C89.9127 23.777 90.0297 23.831 90.1737 23.831C91.3437 23.777 92.4237 23.75 93.4137 23.75C94.4937 23.75 95.6097 23.777 96.7617 23.831C96.9237 23.831 97.0407 23.777 97.1127 23.669C97.2027 23.543 97.2477 23.399 97.2477 23.237C97.2297 22.985 97.1757 22.832 97.0857 22.778C97.0137 22.706 96.8967 22.67 96.7347 22.67H96.5727C96.0507 22.67 95.6637 22.58 95.4117 22.4C95.1597 22.202 94.9977 21.968 94.9257 21.698C94.8717 21.41 94.8357 21.041 94.8177 20.591V15.974H99.6507C99.7947 15.974 99.9027 15.92 99.9747 15.812C100.047 15.704 100.083 15.578 100.083 15.434C100.083 15.272 100.047 15.137 99.9747 15.029C99.9027 14.903 99.7947 14.831 99.6507 14.813H94.8177V7.79299H97.7607C98.3727 7.81099 98.8407 7.93699 99.1647 8.17099C99.5067 8.387 99.7587 8.72899 99.9207 9.19699C100.101 9.64699 100.254 10.313 100.38 11.195C100.398 11.357 100.488 11.483 100.65 11.573C100.83 11.645 101.028 11.681 101.244 11.681C101.406 11.681 101.568 11.636 101.73 11.546C101.892 11.438 101.973 11.303 101.973 11.141L101.892 7.36099C101.892 6.92899 101.658 6.71299 101.19 6.71299H93.3867C92.4147 6.71299 91.3437 6.68599 90.1737 6.632C90.0297 6.632 89.9127 6.69499 89.8227 6.82099C89.7507 6.92899 89.7147 7.06399 89.7147 7.22599C89.7327 7.47799 89.7777 7.63999 89.8497 7.71199C89.9217 7.76599 90.0477 7.79299 90.2277 7.79299H90.3897C90.9117 7.79299 91.2987 7.89199 91.5507 8.08999C91.8027 8.26999 91.9557 8.50399 92.0097 8.792C92.0817 9.06199 92.1267 9.42199 92.1447 9.87199V20.591C92.1267 21.041 92.0817 21.41 92.0097 21.698C91.9557 21.968 91.8027 22.202 91.5507 22.4C91.2987 22.58 90.9117 22.67 90.3897 22.67C90.1377 22.67 89.9667 22.697 89.8767 22.751C89.7867 22.805 89.7327 22.967 89.7147 23.237C89.7147 23.399 89.7507 23.543 89.8227 23.669ZM111.464 23.669C111.554 23.777 111.662 23.831 111.788 23.831C112.85 23.777 113.786 23.75 114.596 23.75C115.442 23.75 116.387 23.777 117.431 23.831C117.575 23.831 117.683 23.777 117.755 23.669C117.827 23.561 117.863 23.435 117.863 23.291C117.845 23.075 117.8 22.94 117.728 22.886C117.656 22.832 117.548 22.805 117.404 22.805H117.242C116.774 22.805 116.441 22.724 116.243 22.562C116.045 22.4 115.928 22.211 115.892 21.995C115.856 21.779 115.838 21.437 115.838 20.969V14.543C116.054 14.111 116.459 13.697 117.053 13.301C117.647 12.887 118.358 12.68 119.186 12.68C119.87 12.68 120.473 12.905 120.995 13.355C121.517 13.787 121.778 14.417 121.778 15.245V20.969C121.778 21.437 121.76 21.779 121.724 21.995C121.688 22.211 121.571 22.4 121.373 22.562C121.175 22.724 120.842 22.805 120.374 22.805C120.14 22.805 119.978 22.832 119.888 22.886C119.816 22.922 119.771 23.057 119.753 23.291C119.753 23.435 119.789 23.561 119.861 23.669C119.951 23.777 120.059 23.831 120.185 23.831C121.247 23.777 122.183 23.75 122.993 23.75C123.839 23.75 124.784 23.777 125.828 23.831C125.954 23.831 126.053 23.777 126.125 23.669C126.215 23.561 126.26 23.435 126.26 23.291C126.242 23.075 126.197 22.94 126.125 22.886C126.053 22.832 125.945 22.805 125.801 22.805H125.639C125.171 22.805 124.838 22.724 124.64 22.562C124.442 22.4 124.325 22.211 124.289 21.995C124.253 21.779 124.235 21.437 124.235 20.969V15.218C124.235 14.012 123.875 13.04 123.155 12.302C122.435 11.564 121.463 11.195 120.239 11.195C119.537 11.195 118.925 11.294 118.403 11.492C117.899 11.672 117.485 11.897 117.161 12.167C116.837 12.419 116.414 12.788 115.892 13.274H115.811V11.573C115.811 11.231 115.667 11.06 115.379 11.06H115.298C115.19 11.078 114.983 11.132 114.677 11.222C113.921 11.51 112.958 11.744 111.788 11.924C111.644 11.942 111.536 12.005 111.464 12.113C111.392 12.203 111.356 12.302 111.356 12.41C111.356 12.644 111.41 12.797 111.518 12.869C111.626 12.923 111.788 12.95 112.004 12.95C112.472 12.95 112.805 13.031 113.003 13.193C113.201 13.355 113.309 13.544 113.327 13.76C113.363 13.976 113.381 14.318 113.381 14.786V20.969C113.381 21.437 113.363 21.779 113.327 21.995C113.309 22.211 113.201 22.4 113.003 22.562C112.805 22.724 112.472 22.805 112.004 22.805C111.77 22.805 111.608 22.832 111.518 22.886C111.428 22.922 111.374 23.057 111.356 23.291C111.356 23.435 111.392 23.561 111.464 23.669ZM146.154 23.21C147.108 23.786 148.26 24.074 149.61 24.074C150.69 24.074 151.653 23.831 152.499 23.345C153.363 22.841 154.074 22.139 154.632 21.239C154.668 21.185 154.686 21.104 154.686 20.996C154.686 20.78 154.596 20.618 154.416 20.51C154.326 20.438 154.218 20.402 154.092 20.402C154.002 20.402 153.912 20.447 153.822 20.537C153.336 21.329 152.823 21.896 152.283 22.238C151.743 22.562 151.086 22.724 150.312 22.724C148.854 22.724 147.774 22.238 147.072 21.266C146.388 20.276 146.046 18.944 146.046 17.27H152.607C153.219 17.27 153.687 17.162 154.011 16.946C154.335 16.73 154.497 16.325 154.497 15.731C154.371 14.345 153.876 13.247 153.012 12.437C152.148 11.609 150.915 11.195 149.313 11.195C148.125 11.195 147.072 11.501 146.154 12.113C145.236 12.725 144.525 13.526 144.021 14.516C143.535 15.488 143.292 16.505 143.292 17.567C143.292 18.773 143.535 19.871 144.021 20.861C144.507 21.851 145.218 22.634 146.154 23.21ZM151.905 15.11C151.851 15.866 151.365 16.244 150.447 16.244H146.046C146.118 14.966 146.451 13.967 147.045 13.247C147.639 12.509 148.395 12.14 149.313 12.14C150.141 12.14 150.78 12.428 151.23 13.004C151.68 13.58 151.905 14.282 151.905 15.11ZM157.06 23.831C156.934 23.831 156.826 23.777 156.736 23.669C156.664 23.561 156.628 23.435 156.628 23.291C156.646 23.057 156.7 22.922 156.79 22.886C156.88 22.832 157.042 22.805 157.276 22.805C157.744 22.805 158.077 22.724 158.275 22.562C158.473 22.4 158.581 22.211 158.599 21.995C158.635 21.779 158.653 21.437 158.653 20.969V14.786C158.653 14.318 158.635 13.976 158.599 13.76C158.581 13.544 158.473 13.355 158.275 13.193C158.077 13.031 157.744 12.95 157.276 12.95C157.06 12.95 156.898 12.923 156.79 12.869C156.682 12.797 156.628 12.644 156.628 12.41C156.628 12.302 156.664 12.203 156.736 12.113C156.808 12.005 156.916 11.942 157.06 11.924C158.23 11.744 159.193 11.51 159.949 11.222C160.255 11.132 160.462 11.078 160.57 11.06H160.651C160.939 11.06 161.083 11.231 161.083 11.573V13.247H161.164C161.794 12.617 162.433 12.122 163.081 11.762C163.729 11.384 164.314 11.195 164.836 11.195C165.43 11.195 165.898 11.42 166.24 11.87C166.6 12.302 166.78 12.806 166.78 13.382C166.78 13.886 166.627 14.336 166.321 14.732C166.015 15.128 165.592 15.326 165.052 15.326C164.8 15.326 164.575 15.272 164.377 15.164C164.197 15.056 164.098 14.966 164.08 14.894C164.098 14.858 164.188 14.75 164.35 14.57C164.512 14.372 164.593 14.147 164.593 13.895C164.593 13.571 164.503 13.31 164.323 13.112C164.161 12.914 163.936 12.815 163.648 12.815C163.342 12.815 162.955 12.968 162.487 13.274C162.019 13.562 161.56 13.931 161.11 14.381V20.969C161.11 21.437 161.128 21.779 161.164 21.995C161.2 22.211 161.317 22.4 161.515 22.562C161.713 22.724 162.046 22.805 162.514 22.805H162.676C162.82 22.805 162.928 22.832 163 22.886C163.072 22.94 163.117 23.075 163.135 23.291C163.135 23.435 163.099 23.561 163.027 23.669C162.955 23.777 162.847 23.831 162.703 23.831C161.659 23.777 160.714 23.75 159.868 23.75C159.058 23.75 158.122 23.777 157.06 23.831ZM9.19422 20.0776L7.37748 18.4603C7.37256 18.4559 7.36756 18.4517 7.36248 18.4475C6.82494 18.0057 6.67497 17.7088 6.65756 17.4868C6.63943 17.2556 6.74986 16.9359 7.16665 16.4108L7.16774 16.4095L10.5988 12.056C10.7261 11.8949 10.8666 11.7772 11.0112 11.6973V14.3563C11.0112 14.6324 11.2351 14.8563 11.5112 14.8563C11.7874 14.8563 12.0112 14.6324 12.0112 14.3563V11.6911C12.1599 11.7712 12.3045 11.8908 12.4352 12.0563L15.8661 16.4095L15.8672 16.4108C16.2816 16.9329 16.3808 17.2421 16.36 17.4673C16.3389 17.695 16.1808 17.9953 15.6571 18.4596L15.6563 18.4603L13.8396 20.0776H9.19422ZM8.43116 20.7371L6.71979 19.2137C6.12524 18.7235 5.71049 18.2009 5.66062 17.565C5.61129 16.9359 5.93368 16.3558 6.38283 15.7898L9.81359 11.4368C10.2587 10.8735 10.8736 10.5629 11.5169 10.5629C12.1602 10.5629 12.7748 10.873 13.2198 11.4363L16.6504 15.7891C17.102 16.3581 17.4136 16.9325 17.3557 17.5593C17.298 18.1836 16.8882 18.7045 16.3209 19.2075L14.5932 20.7455L14.9924 22.5078C15.1271 23.1288 14.9626 23.7209 14.5647 24.1523C14.1718 24.5782 13.586 24.8125 12.9287 24.8125H10.0937C8.84422 24.8125 7.73954 23.7699 8.03129 22.5024L8.43116 20.7371ZM9.37938 21.0776L9.00638 22.7242L9.00593 22.7262C8.89355 23.2132 9.31858 23.8125 10.0937 23.8125H12.9287C13.3514 23.8125 13.6544 23.6643 13.8296 23.4743C13.9995 23.2902 14.0825 23.0335 14.0155 22.7218L13.6431 21.0776H9.37938Z" fill="black"/>
</svg>
