<svg width="20" height="20" viewBox="0 0 20 20" fill="none" xmlns="http://www.w3.org/2000/svg">
<path fill-rule="evenodd" clip-rule="evenodd" d="M1.75 9.14286C1.75 5.0599 5.0599 1.75 9.14286 1.75C13.2258 1.75 16.5357 5.0599 16.5357 9.14286C16.5357 13.2258 13.2258 16.5357 9.14286 16.5357C5.0599 16.5357 1.75 13.2258 1.75 9.14286ZM9.14286 0.25C4.23147 0.25 0.25 4.23147 0.25 9.14286C0.25 14.0542 4.23147 18.0357 9.14286 18.0357C11.3412 18.0357 13.3532 17.2381 14.9053 15.9164C14.9398 15.9831 14.9851 16.0458 15.0411 16.1018L18.4697 19.5303C18.7626 19.8232 19.2374 19.8232 19.5303 19.5303C19.8232 19.2374 19.8232 18.7626 19.5303 18.4697L16.1018 15.0411C16.0458 14.9851 15.9832 14.9398 15.9164 14.9052C17.2381 13.3532 18.0357 11.3412 18.0357 9.14286C18.0357 4.23147 14.0542 0.25 9.14286 0.25Z" fill="white"/>
</svg>
